<?xml version="1.0" standalone="no"?>
<!DOCTYPE svg PUBLIC "-//W3C//DTD SVG 20010904//EN"
 "http://www.w3.org/TR/2001/REC-SVG-20010904/DTD/svg10.dtd">
<svg version="1.0" xmlns="http://www.w3.org/2000/svg"
 width="840.000000pt" height="840.000000pt" viewBox="0 0 840.000000 840.000000"
 preserveAspectRatio="xMidYMid meet">
<metadata>
Created by potrace 1.14, written by Peter Selinger 2001-2017
</metadata>
<g transform="translate(0.000000,840.000000) scale(0.100000,-0.100000)"
fill="#000000" stroke="none">
<path d="M60 8172 l0 -227 47 -29 c118 -73 398 -197 425 -188 5 1 8 -2 8 -8 0
-5 8 -10 18 -10 9 0 37 -7 62 -16 25 -9 52 -18 60 -20 8 -2 49 -12 90 -23 72
-20 138 -33 225 -47 22 -3 42 -8 45 -10 8 -8 6 -105 -2 -110 -5 -3 -5 -11 -1
-17 4 -7 8 -1504 8 -3327 1 -3560 4 -3350 -45 -3350 -23 0 -246 -54 -327 -79
-34 -10 -64 -16 -67 -13 -3 3 -6 0 -6 -6 0 -7 -7 -12 -15 -12 -13 0 -204 -76
-292 -116 -17 -8 -36 -14 -42 -14 -6 0 -11 -5 -11 -10 0 -6 -3 -9 -8 -8 -10 2
-37 -9 -109 -44 l-63 -31 0 -228 0 -229 1818 0 1818 0 -1 227 0 228 -47 32
c-26 18 -50 33 -54 33 -3 0 -18 9 -33 19 -64 46 -255 132 -391 177 -25 8 -52
18 -60 21 -8 3 -20 7 -27 9 -6 1 -27 7 -45 13 -18 5 -44 12 -58 14 -14 2 -32
7 -40 10 -8 3 -33 9 -55 14 l-40 9 0 1564 0 1565 253 0 c139 0 256 -2 260 -5
10 -7 44 -58 59 -90 7 -14 24 -43 38 -65 14 -22 28 -48 32 -57 3 -10 9 -18 13
-18 4 0 10 -8 13 -17 4 -10 18 -36 32 -58 14 -22 31 -52 37 -67 7 -16 16 -28
20 -28 4 0 8 -7 8 -15 0 -8 5 -15 10 -15 6 0 10 -4 10 -9 0 -5 20 -42 45 -83
24 -40 52 -86 61 -103 23 -42 308 -497 355 -568 22 -32 39 -61 39 -63 0 -3 5
-10 11 -17 20 -24 169 -257 169 -266 0 -5 4 -11 8 -13 4 -1 34 -43 66 -93 33
-49 72 -109 87 -133 16 -24 29 -47 29 -53 0 -5 3 -9 8 -9 4 0 23 -27 42 -60
19 -33 38 -60 43 -60 4 0 7 -5 7 -11 0 -7 16 -34 35 -60 19 -27 35 -54 35 -59
0 -6 5 -10 10 -10 6 0 10 -7 10 -15 0 -8 5 -15 10 -15 6 0 10 -6 10 -14 0 -8
3 -16 8 -18 7 -3 34 -41 126 -178 17 -25 34 -49 39 -55 4 -5 36 -49 70 -96 34
-48 70 -97 79 -110 120 -163 159 -216 168 -226 5 -7 10 -15 10 -17 0 -3 19
-32 43 -63 23 -32 54 -75 67 -95 14 -21 28 -38 33 -38 4 0 7 -5 7 -10 0 -6 4
-16 10 -23 47 -57 60 -76 60 -86 0 -6 4 -11 9 -11 5 0 18 -15 30 -32 11 -18
28 -42 38 -53 10 -11 30 -36 43 -55 13 -19 29 -40 35 -46 5 -6 50 -63 99 -125
78 -100 102 -123 198 -189 59 -41 116 -81 126 -88 9 -7 68 -49 131 -93 l114
-79 1043 0 1044 0 -2 206 -3 205 -30 17 c-16 9 -31 20 -33 25 -2 4 -9 7 -15 7
-6 0 -18 6 -26 14 -9 8 -39 26 -68 41 -28 14 -57 33 -64 41 -6 8 -15 14 -19
14 -7 0 -168 93 -185 107 -5 5 -40 26 -77 48 -38 21 -68 42 -68 45 0 3 -12 19
-27 36 -16 16 -46 52 -68 78 -22 27 -49 58 -60 71 -11 12 -27 31 -36 41 -8 11
-33 40 -55 65 -21 26 -48 57 -59 70 -62 74 -92 110 -139 163 -28 33 -56 64
-61 70 -10 11 -87 104 -115 140 -8 10 -24 28 -35 40 -11 11 -38 43 -60 71 -54
67 -104 126 -143 170 -10 11 -41 47 -68 80 -27 33 -54 65 -60 70 -9 8 -167
199 -214 259 -21 26 -87 105 -116 139 -13 15 -21 27 -17 27 4 0 0 6 -9 13 -13
10 -444 547 -528 657 -14 18 -32 40 -40 50 -8 10 -26 32 -40 50 -52 69 -184
235 -190 240 -3 3 -21 26 -40 53 -18 26 -37 47 -42 47 -5 0 -7 4 -4 9 4 5 2
11 -2 13 -5 1 -32 34 -62 72 -29 38 -59 76 -66 85 -91 112 -184 234 -184 241
0 4 -4 10 -9 12 -6 2 -39 41 -75 88 -36 47 -75 96 -86 110 -19 23 -136 179
-180 240 -10 14 -42 58 -72 97 -29 40 -78 108 -108 150 -30 43 -57 80 -60 83
-24 20 -18 45 23 94 23 28 56 69 72 91 16 22 34 45 40 51 5 6 21 26 35 44 28
37 72 92 80 100 3 3 18 23 35 45 16 22 32 42 35 45 3 3 17 21 30 40 13 19 31
42 40 50 8 8 29 33 45 55 16 22 37 49 46 60 10 11 63 79 118 150 56 72 112
142 124 156 12 15 58 73 102 129 44 56 125 159 180 229 55 70 138 176 185 235
47 60 90 114 95 120 6 6 24 29 40 51 30 40 48 62 75 95 8 9 26 32 40 50 14 19
35 45 48 58 12 14 22 28 22 31 0 3 15 23 33 43 17 21 43 52 57 69 14 18 53 69
88 113 34 45 68 88 75 96 7 8 28 35 47 60 19 25 39 50 45 56 25 29 45 55 45
59 0 3 8 13 18 23 9 10 28 33 42 52 20 26 138 176 213 270 17 21 81 105 82
107 1 1 17 4 35 7 19 3 44 7 55 10 51 11 151 37 165 43 8 3 20 7 25 8 111 25
370 122 500 187 66 34 130 66 142 72 13 6 23 20 24 31 0 11 2 116 2 233 l2
212 -1607 0 -1608 0 -1 -22 c-1 -27 -1 -408 0 -425 1 -14 155 -93 306 -158 60
-25 127 -55 150 -65 63 -29 240 -88 329 -111 44 -11 83 -22 84 -24 4 -3 -55
-94 -67 -105 -3 -3 -12 -17 -20 -32 -8 -15 -22 -36 -31 -46 -9 -10 -19 -23
-21 -28 -7 -19 -244 -369 -251 -372 -5 -2 -8 -8 -8 -13 0 -8 -58 -97 -71 -109
-3 -3 -20 -30 -38 -60 -19 -30 -37 -57 -40 -60 -4 -3 -22 -30 -41 -60 -19 -30
-37 -57 -40 -60 -3 -3 -55 -79 -115 -170 -60 -91 -113 -169 -117 -175 -24 -31
-98 -148 -98 -155 0 -5 -4 -10 -9 -12 -8 -2 -98 -133 -146 -210 -5 -9 -25 -37
-43 -63 -17 -25 -32 -50 -32 -55 0 -4 -3 -10 -7 -12 -12 -5 -173 -246 -173
-258 0 -5 -4 -10 -8 -10 -5 0 -17 -16 -28 -35 -10 -19 -22 -35 -26 -35 -5 0
-8 -7 -8 -15 0 -8 -4 -15 -10 -15 -5 0 -10 -5 -10 -10 0 -6 -18 -35 -40 -65
-22 -30 -40 -58 -40 -62 0 -4 -11 -21 -25 -37 -14 -16 -25 -33 -25 -37 0 -4
-6 -14 -12 -21 -7 -7 -84 -119 -170 -249 -86 -130 -163 -236 -170 -237 -7 0
-22 -3 -33 -6 -50 -13 -234 -58 -270 -66 -22 -4 -110 -25 -195 -45 -85 -20
-164 -39 -175 -41 -20 -4 -20 -3 -20 1521 0 1260 2 1525 13 1525 57 0 512 161
592 209 8 5 44 24 80 43 36 18 67 36 68 40 2 5 9 8 17 8 7 0 18 7 25 15 7 8
16 13 20 10 4 -3 14 3 21 12 11 12 14 66 14 240 l1 223 -1818 0 -1818 0 0
-228z"/>
</g>
</svg>
